<svg width="118" height="40" viewBox="0 0 118 40" fill="none" xmlns="http://www.w3.org/2000/svg">
<path d="M53.0332 9.95441C54.426 9.95441 55.6436 10.2566 56.6621 10.887C57.7411 11.5184 58.3256 12.4612 58.3516 13.6771C58.3959 14.3223 58.3039 14.9048 58.0117 15.3724C58.0091 15.3765 58.0056 15.38 58.0029 15.3841C57.7201 15.8083 57.3177 16.1019 56.7949 16.1019C56.4779 16.1018 56.1988 15.9774 55.9795 15.7581C55.9688 15.7474 55.9589 15.7355 55.9492 15.7239C55.7455 15.4794 55.668 15.1797 55.668 14.8763C55.668 14.474 55.7872 14.0679 55.9932 13.6644C55.8908 13.4026 55.6683 13.1738 55.2451 12.9925L55.2393 12.9905C54.7247 12.7619 54.0821 12.637 53.2969 12.637C52.1212 12.6371 51.247 12.8589 50.6289 13.2523L50.6191 13.2581C49.98 13.6456 49.7715 14.0361 49.7715 14.4144C49.7715 14.9151 49.9585 15.2611 50.3408 15.5159C50.8042 15.8249 51.3775 16.0558 52.0723 16.1995C52.6345 16.2955 53.376 16.3929 54.2998 16.4905L55.291 16.5892L55.3096 16.5911C56.4896 16.747 57.4655 16.9383 58.2275 17.1693C59.0777 17.42 59.7891 17.9102 60.3555 18.6243C60.9586 19.3625 61.2226 20.3816 61.2227 21.6077C61.2227 23.0084 60.556 24.1175 59.3047 24.9026L59.2988 24.9066C58.085 25.6443 56.6495 26.0022 55.0137 26.0023C52.9546 26.0023 51.0922 25.6516 49.4365 24.9388L49.4346 24.9378C47.778 24.2145 46.714 23.1399 46.4062 21.678C46.3671 21.4919 46.4365 21.2995 46.5859 21.1819C46.9498 20.8961 47.3531 20.7123 47.7861 20.7122C48.1533 20.7122 48.4986 20.8205 48.8135 21.0208C49.1014 21.1904 49.3819 21.4021 49.6572 21.6526C49.7877 21.7614 49.9025 21.8554 50.002 21.9339L50.2549 22.1253L50.2725 22.138C50.7054 22.4769 51.327 22.7615 52.165 22.971C53.0018 23.1802 53.896 23.2864 54.8486 23.2864C55.9054 23.2864 56.8295 23.0894 57.6318 22.7093C58.438 22.3161 58.704 21.873 58.7041 21.4105C58.7041 20.8914 58.5233 20.5262 58.1729 20.2552L58.1611 20.2464C57.7401 19.9021 57.2248 19.6458 56.6045 19.4857C55.951 19.317 55.0737 19.1546 53.9658 19.0023C52.4348 18.8248 51.1935 18.6008 50.2529 18.3255H50.25C49.2953 18.0391 48.5059 17.5645 47.9072 16.8909L47.9014 16.8841C47.2721 16.1497 46.9893 15.1612 46.9893 13.9847C46.9893 13.3092 47.1499 12.6962 47.4883 12.1653C47.7836 11.7021 48.2002 11.3242 48.7178 11.0237L48.9453 10.8997C50.1475 10.2649 51.5144 9.95442 53.0332 9.95441ZM70.5166 9.888C72.1294 9.88806 73.4218 10.4163 74.3066 11.5286C75.1643 12.5844 75.5508 13.9062 75.5039 15.4525C75.4998 16.9016 74.9065 18.0475 73.7285 18.8245L73.7275 18.8235C72.6123 19.5735 71.2115 19.93 69.5596 19.93C69.294 19.93 68.9121 19.9059 68.4248 19.8616H68.415C67.6179 19.7731 66.986 19.6456 66.5762 19.4544C66.3178 19.3338 66.1113 19.1442 65.9756 18.8909C65.9324 18.8103 65.9009 18.7249 65.874 18.638C65.9992 19.9117 66.4344 20.9599 67.1631 21.806L67.3262 21.9798C68.1728 22.8249 69.4591 23.2864 71.2754 23.2864C71.4954 23.2864 71.8832 23.2656 72.4512 23.222L72.6084 23.2015C72.7789 23.1736 72.9879 23.1235 73.2383 23.0452C73.5905 22.9352 73.8483 22.8557 74.0088 22.8099C74.945 22.4847 75.6987 22.2962 76.2256 22.2962C76.6433 22.2962 77.0407 22.4092 77.3379 22.7064C77.5056 22.8741 77.5327 23.1371 77.4023 23.3353C76.7833 24.2761 75.8626 24.952 74.6787 25.3782L74.6729 25.3802C73.5466 25.7709 72.4245 25.969 71.3086 25.9691C69.8336 25.9691 68.4628 25.6807 67.2041 25.098C65.9408 24.5131 64.9238 23.6756 64.166 22.5862C63.3996 21.4844 63.0205 20.2174 63.0205 18.803C63.0205 17.2652 63.3072 15.822 63.8857 14.4798C64.4679 13.1073 65.3248 12 66.458 11.1732C67.6279 10.3136 68.9879 9.888 70.5166 9.888ZM102.948 8.50226L102.957 8.50323C104.633 8.59901 106.149 9.31928 107.497 10.6194L107.743 10.8597C108.958 12.0797 109.914 13.5668 110.617 15.3118L110.758 15.6595C111.435 17.398 111.777 19.1177 111.777 20.8157C111.777 21.1226 111.754 21.5462 111.71 22.0784C111.699 22.2094 111.637 22.3234 111.547 22.4056C111.857 22.6399 111.942 23.0237 111.942 23.3568C111.942 23.5875 111.825 23.7621 111.728 23.8694C111.626 23.9805 111.497 24.0747 111.364 24.1556C111.097 24.3186 110.723 24.4831 110.262 24.6517C109.338 24.9897 108.306 25.2922 107.168 25.5599C106.052 25.8224 105.228 25.9691 104.743 25.9691C102.398 25.969 100.332 25.5628 98.5586 24.7337L98.5518 24.7308C97.6394 24.2866 96.9331 23.6652 96.459 22.8607C95.9864 22.0584 95.7627 21.1047 95.7627 20.0237C95.7628 19.1907 96.0163 18.3937 96.502 17.6409C96.9373 16.9661 97.547 16.4172 98.3125 15.9886L98.6504 15.8128C99.594 15.3311 100.719 15.1019 102.005 15.1019C102.964 15.1019 103.791 15.1468 104.479 15.2386C105.205 15.3353 106.014 15.5972 106.9 16.0062C107.408 16.2406 107.92 16.5492 108.438 16.9261C108.143 16.0768 107.781 15.3048 107.354 14.6097C106.677 13.51 105.929 12.6857 105.117 12.1175C105.113 12.1148 105.109 12.1124 105.105 12.1097C104.31 11.5178 103.564 11.2513 102.862 11.2513C102.533 11.2513 102.228 11.3145 101.941 11.4398C101.937 11.4419 101.931 11.4446 101.926 11.4466C101.624 11.5673 101.24 11.7519 100.771 12.0071C100.49 12.1865 100.232 12.3306 100 12.431C99.7709 12.53 99.5301 12.6038 99.2988 12.6038C99.0806 12.6038 98.8757 12.5365 98.7012 12.4056C98.6633 12.3772 98.63 12.3429 98.6016 12.305C98.4707 12.1305 98.4024 11.9264 98.4023 11.7083C98.4023 10.6496 98.8815 9.81036 99.791 9.23859L99.7969 9.23566C100.578 8.75845 101.486 8.5192 102.505 8.49835L102.948 8.50226ZM24.7148 9.49347C24.9566 9.50247 25.2023 9.5969 25.373 9.82452C25.5324 10.0371 25.5722 10.2959 25.5723 10.5198C25.5723 10.8699 25.4813 11.3684 25.3281 11.9827C25.1841 12.6207 25.1104 13.3641 25.1104 14.2161C25.1104 15.4853 25.29 16.7214 25.6484 17.9261L25.7979 18.3646C26.1625 19.3582 26.6484 20.1775 27.249 20.8333C27.9312 21.5336 28.7052 21.8674 29.5928 21.8675C30.3448 21.8675 31.0246 21.648 31.6445 21.2025C32.2844 20.7426 32.7818 20.1647 33.1416 19.4651L33.1465 19.4554C33.5315 18.7461 33.7129 18.0687 33.7129 17.4173V12.1702C33.7129 12.0894 33.733 12.0094 33.7705 11.9378C34.0734 11.3597 34.5503 10.9769 35.2031 10.9769C35.5576 10.9769 35.8537 11.1386 36.0654 11.4056C36.261 11.6522 36.3788 11.978 36.4521 12.3323C36.5944 13.0199 36.6602 13.9622 36.6602 15.14C36.6602 16.0931 36.6486 16.8387 36.6279 17.3734C36.7541 18.0527 36.9404 18.7448 37.1885 19.4495L37.4121 20.0218C37.5699 20.4162 37.7445 20.8357 37.9355 21.2806L38.2344 21.9671L38.2363 21.97C38.4913 22.5575 38.6853 23.0402 38.8174 23.4134C38.8833 23.5998 38.9361 23.7651 38.9727 23.9066C39.0071 24.0397 39.0361 24.1831 39.0361 24.3138C39.0361 24.7167 38.9388 25.1123 38.6562 25.4046C38.3706 25.6998 37.9794 25.804 37.5791 25.804C37.0177 25.804 36.5512 25.5581 36.2188 25.1048C36.2115 25.095 36.2047 25.0849 36.1982 25.0745C35.9372 24.6568 35.7237 24.0688 35.543 23.346L35.542 23.3431C35.4265 22.8669 35.2712 22.1688 35.0732 21.2513C34.6587 22.0753 34.1074 22.786 33.415 23.3753L33.4102 23.3792C32.2762 24.32 30.8942 24.7816 29.2959 24.7816C27.8024 24.7815 26.5192 24.2578 25.4775 23.2161L25.4697 23.2073C24.4802 22.1707 23.7522 20.831 23.2725 19.2093V19.2073C22.7959 17.5734 22.5596 15.8207 22.5596 13.9525C22.5596 13.0884 22.639 12.3286 22.8066 11.6819L22.8096 11.6693C22.9934 11.0258 23.225 10.4937 23.5244 10.1126L23.5381 10.096C23.8356 9.74896 24.2308 9.4525 24.7148 9.49347ZM42.2764 2.13312C42.6638 2.13312 43.1592 2.22417 43.3838 2.67316C43.5501 2.96444 43.6016 3.3371 43.6016 3.72198C43.6016 7.28048 43.6674 10.3186 43.7988 12.8372C43.8977 14.7148 44.0206 16.7041 44.1689 18.805L44.3262 20.9437V20.9456C44.4581 22.8151 44.5458 24.0813 44.5898 24.7425L44.5908 24.7444C44.6074 25.0105 44.5488 25.3122 44.3105 25.5364C44.085 25.7487 43.7888 25.804 43.5303 25.804C43.3504 25.804 43.1375 25.7755 42.9043 25.7288C42.7068 25.6893 42.5527 25.5346 42.5127 25.3372C42.0237 22.9145 41.6469 20.0555 41.3818 16.764V16.761C41.139 13.4499 41.0176 10.2475 41.0176 7.1546C41.0176 5.99437 41.0358 4.93109 41.0732 3.96613L41.1172 3.03448C41.1249 2.75099 41.2509 2.48934 41.5088 2.32159C41.738 2.17263 42.0182 2.13312 42.2764 2.13312ZM115.173 2.13312C115.56 2.13312 116.056 2.22417 116.28 2.67316C116.447 2.96444 116.498 3.3371 116.498 3.72198C116.498 7.28048 116.564 10.3186 116.695 12.8372C116.794 14.7148 116.917 16.7041 117.065 18.805L117.223 20.9437V20.9456C117.355 22.8151 117.442 24.0813 117.486 24.7425L117.487 24.7444C117.504 25.0105 117.445 25.3122 117.207 25.5364C116.981 25.7487 116.685 25.804 116.427 25.804C116.247 25.804 116.034 25.7755 115.801 25.7288C115.603 25.6893 115.449 25.5346 115.409 25.3372C114.92 22.9145 114.543 20.0555 114.278 16.764V16.761C114.036 13.4499 113.914 10.2475 113.914 7.1546C113.914 5.99437 113.932 4.93109 113.97 3.96613L114.014 3.03448C114.021 2.75099 114.147 2.48934 114.405 2.32159C114.634 2.17263 114.915 2.13312 115.173 2.13312ZM102.994 17.7855C101.323 17.7855 100.245 18.04 99.6504 18.4544C99.0727 18.8571 98.7754 19.4328 98.7754 20.2552C98.7754 21.0602 99.1608 21.7263 100.054 22.2698C100.965 22.8246 102.165 23.1214 103.688 23.1214C104.544 23.1214 105.212 23.078 105.699 22.9984C106.082 22.9186 106.478 22.8218 106.888 22.7054L107.303 22.5823C107.775 22.4254 108.201 22.3094 108.578 22.2386C108.889 22.1802 109.258 22.1475 109.678 22.136C108.88 20.5422 107.878 19.4514 106.687 18.8157L106.678 18.8109C105.445 18.1212 104.218 17.7855 102.994 17.7855ZM70.7803 12.4388C69.8206 12.4388 68.9737 12.6968 68.2246 13.2093L68.2168 13.2151C67.4541 13.717 66.8635 14.3775 66.4404 15.2034C66.0485 16.0101 65.8481 16.8624 65.8369 17.7659C65.8831 17.6124 65.9702 17.4624 66.124 17.347C66.2441 17.2472 66.3806 17.1935 66.501 17.1634C66.6421 17.1281 66.7961 17.1156 66.9521 17.1155C67.2889 17.1155 67.8361 17.1901 68.5596 17.3216H68.5625C69.2447 17.4495 69.8401 17.511 70.3516 17.511C71.3019 17.511 71.9213 17.3029 72.2998 16.9739C72.6649 16.6565 72.8876 16.1546 72.8877 15.3714C72.8877 14.3711 72.6991 13.6402 72.373 13.1331L72.3662 13.1224C72.1131 12.7055 71.641 12.4388 70.7803 12.4388Z" fill="white"/>
<path d="M17.2249 2.38739C14.7474 0.764249 11.0427 3.69412e-05 6.20836 0C4.51717 0 3.08442 0.226304 1.94102 0.713755C0.79653 1.20173 7.75184e-05 1.98008 0 3.12452C0 4.47016 0.0265093 5.3916 0.0887255 5.8331C0.0912115 5.85072 0.0944992 5.86867 0.0984489 5.88602C0.152426 6.12284 0.247933 6.37624 0.431474 6.57762C0.633709 6.79945 0.903773 6.91478 1.19719 6.91481C1.431 6.91481 1.66777 6.84549 1.8681 6.67976C2.06017 6.52064 2.17389 6.31085 2.24002 6.10999C2.34333 5.79603 2.41732 5.36807 2.47338 4.85723L2.47216 4.85599C2.5251 4.40227 2.58781 4.09369 2.64961 3.90596C2.6516 3.89993 2.65388 3.8936 2.65569 3.8875C2.68057 3.80365 2.70609 3.76374 2.71768 3.74844C2.723 3.74143 2.72254 3.74106 2.72254 3.74106C2.73669 3.7347 2.75143 3.72879 2.76508 3.72137C3.77611 3.17216 5.0383 2.88209 6.57784 2.88209C10.3842 2.88212 13.1187 3.56882 14.8816 4.84369C16.6516 6.12379 17.4959 7.72851 17.4959 9.69476C17.4959 10.4432 17.294 11.0863 16.8955 11.6453C16.492 12.2113 15.8642 12.7236 14.9715 13.1626L14.9691 13.1639C13.2833 14.0049 11.02 14.5905 8.15546 14.9089C8.04897 14.2754 7.96498 13.6188 7.91116 12.9374L7.85646 12.0378C7.82891 11.3961 7.80798 10.8927 7.79448 10.5242L7.77503 9.82028V9.80305C7.72019 7.77638 7.62395 6.27342 7.4809 5.31747C7.44055 5.04784 7.23468 4.83967 6.97772 4.792L6.86468 4.78216H6.4952C6.003 4.78225 5.57681 4.99335 5.23359 5.34086L5.20928 5.36793C4.88953 5.73218 4.72324 6.17151 4.72312 6.65884C4.72312 6.6681 4.72393 6.6779 4.72433 6.68715C4.94342 11.6228 5.18962 15.1944 5.46695 17.3849L5.46817 17.3861C5.74444 19.54 6.14484 21.6809 6.669 23.8062L7.03849 25.4687C7.09137 25.7067 7.27497 25.8932 7.51007 25.9462C7.8211 26.0162 8.16125 26.0321 8.47754 25.9068C8.81948 25.7714 9.04801 25.504 9.17033 25.182C9.37473 24.7133 9.45839 24.1406 9.45839 23.501C9.45836 22.5467 9.30456 21.2749 9.00747 19.7009L8.87134 19.008C8.84201 18.8068 8.80136 18.5713 8.74858 18.3041C8.73719 18.2465 8.72719 18.1872 8.71577 18.1269C10.3017 18.0631 11.9438 17.797 13.6406 17.3307L13.6491 17.3282C15.6377 16.7529 17.3478 15.8694 18.7648 14.6689C20.2398 13.4191 21 11.8319 21 9.94458C21 6.60216 19.7543 4.04452 17.2249 2.38739Z" fill="white"/>
<path d="M91.0531 13.973C89.8637 13.4133 88.6025 13.1331 87.2758 13.1331C84.8523 13.1332 82.8214 13.6653 81.2211 14.7698L80.9183 14.9896C79.4582 16.1238 78.7572 17.8376 78.7572 20.0355C78.7572 20.8325 78.9968 22.6811 79.4564 25.5267L79.4574 25.5306C79.9432 28.4231 80.4846 31.0549 81.0824 33.4241L81.0834 33.428C81.3934 34.6127 81.6879 35.5277 81.9691 36.1546C82.6324 37.6331 82.6849 38.1331 81.7689 38.1331C80.3051 38.6331 76.2826 36.1546 75.2826 32.6331C74.4786 29.8019 76.4493 29.9665 78.2826 30.1331C75.1159 28.9665 69.0826 27.3331 70.2826 30.1331C71.7826 33.6331 78.6006 41.2924 82.7699 39.6331C85.2826 38.6331 84.2513 36.1546 84.2513 36.1546C84.2513 36.1546 83.18 32.0561 82.7699 30.1009L82.6849 29.678C82.3237 27.6613 82.0444 25.2202 81.848 22.3519L81.7689 21.096C81.6632 19.1475 82.1154 17.8992 82.975 17.1859L83.1556 17.0413C84.0648 16.3578 85.4145 15.9818 87.2758 15.9818C88.0916 15.9818 88.8876 16.1343 89.6664 16.4417C90.4349 16.7451 91.0465 17.1733 91.516 17.721C91.9683 18.2488 92.1878 18.8377 92.1879 19.5071C92.1879 20.4961 91.9177 21.1225 91.474 21.5013C91.0424 21.8665 90.216 22.1097 88.8597 22.1097C88.0157 22.1097 87.3192 21.9968 86.7572 21.7874L86.5248 21.6917C86.0579 21.4734 85.5812 21.2013 85.0951 20.8734L84.6039 20.5247L84.5931 20.5169L84.2513 20.2894C84.1413 20.2198 84.0333 20.1551 83.9271 20.096C83.7114 19.9446 83.4619 19.8323 83.184 19.8323C82.8204 19.8324 82.5288 20.0202 82.3129 20.2669C82.2616 20.3255 82.225 20.3953 82.2054 20.47L82.1918 20.5462L82.1586 20.8763C82.1569 20.8927 82.1557 20.9096 82.1556 20.9261C82.1556 22.1882 82.9192 23.135 84.2142 23.7825L84.224 23.7874C85.5169 24.3986 87.0577 24.6937 88.8275 24.6937C90.5373 24.6936 91.9942 24.3625 93.1693 23.6683L93.1703 23.6693C94.4615 22.9203 95.0686 21.6292 95.0687 19.9368C95.0687 18.6706 94.7443 17.5326 94.0873 16.5403L93.9515 16.3441C93.2177 15.3041 92.2485 14.5134 91.0531 13.973Z" fill="white"/>
</svg>
